<svg class="sm:block hidden w-32 h-full invert" xmlns="http://www.w3.org/2000/svg" width="415" height="130" viewBox="0 0 415 130" fill="none"><mask id="path-1-outside-1_233_15" maskUnits="userSpaceOnUse" x="1.14502" y="27.401" width="414" height="75" fill="black"><rect fill="black" x="1.14502" y="27.401" width="414" height="75"></rect><path d="M8.39602 98.497C7.27602 98.497 6.38602 98.303 5.72702 97.915C5.13402 97.527 4.70502 97.01 4.44202 96.363C4.24402 95.652 4.14502 94.843 4.14502 93.938V34.863C4.14502 34.022 4.27702 33.311 4.54002 32.729C4.80402 32.147 5.26502 31.694 5.92502 31.371C6.64902 30.983 7.63802 30.789 8.89002 30.789C10.34 30.789 11.362 30.918 11.955 31.177C12.548 31.436 13.141 31.888 13.735 32.535L50.906 84.141V34.863C50.906 34.022 51.005 33.311 51.203 32.729C51.467 32.147 51.928 31.694 52.587 31.371C53.246 30.983 54.202 30.789 55.454 30.789C56.64 30.789 57.53 30.983 58.123 31.371C58.782 31.759 59.211 32.309 59.409 33.02C59.672 33.667 59.804 34.41 59.804 35.251V94.035C59.804 94.876 59.639 95.652 59.31 96.363C59.046 97.01 58.552 97.527 57.827 97.915C57.168 98.303 56.212 98.497 54.96 98.497C53.905 98.497 53.015 98.368 52.291 98.109C51.631 97.85 51.005 97.365 50.412 96.654L13.043 45.436V94.035C13.043 94.876 12.911 95.652 12.647 96.363C12.383 97.01 11.922 97.527 11.263 97.915C10.604 98.303 9.64802 98.497 8.39602 98.497ZM79.676 98.497C78.358 98.497 77.369 98.303 76.71 97.915C76.117 97.592 75.721 97.107 75.524 96.46C75.326 95.749 75.227 94.94 75.227 94.035V35.154C75.227 33.473 75.557 32.341 76.216 31.759C76.941 31.112 78.193 30.789 79.973 30.789H119.715C120.637 30.789 121.428 30.886 122.088 31.08C122.746 31.274 123.24 31.694 123.571 32.341C123.9 32.988 124.065 33.958 124.065 35.251C124.065 36.545 123.867 37.515 123.472 38.161C123.142 38.743 122.647 39.131 121.989 39.325C121.329 39.519 120.539 39.616 119.616 39.616H84.125V59.696H108.84C109.763 59.696 110.521 59.793 111.114 59.987C111.772 60.181 112.267 60.569 112.597 61.151C112.926 61.733 113.091 62.638 113.091 63.867C113.091 65.031 112.926 65.904 112.597 66.486C112.267 67.068 111.772 67.456 111.114 67.65C110.455 67.779 109.631 67.844 108.643 67.844H84.125V89.767H119.715C120.637 89.767 121.428 89.864 122.088 90.058C122.746 90.252 123.24 90.672 123.571 91.319C123.9 91.901 124.065 92.838 124.065 94.132C124.065 95.425 123.867 96.395 123.472 97.042C123.142 97.624 122.647 98.012 121.989 98.206C121.329 98.4 120.539 98.497 119.616 98.497H79.676ZM165.986 99.176C161.307 99.176 156.891 98.303 152.739 96.557C148.653 94.811 145.027 92.386 141.864 89.282C138.767 86.113 136.328 82.491 134.548 78.417C132.769 74.343 131.879 69.946 131.879 65.225C131.879 60.44 132.736 55.945 134.449 51.742C136.164 47.473 138.536 43.755 141.567 40.586C144.666 37.418 148.225 34.928 152.244 33.117C156.265 31.306 160.549 30.401 165.096 30.401C169.842 30.401 174.258 31.274 178.344 33.02C182.496 34.766 186.089 37.224 189.12 40.392C192.218 43.496 194.656 47.15 196.435 51.354C198.215 55.557 199.105 60.052 199.105 64.837C199.105 69.558 198.215 73.988 196.435 78.126C194.722 82.2 192.349 85.854 189.317 89.088C186.286 92.256 182.76 94.746 178.739 96.557C174.785 98.303 170.534 99.176 165.986 99.176ZM165.393 90.349C168.82 90.349 172.017 89.702 174.983 88.409C178.015 87.115 180.651 85.305 182.891 82.976C185.133 80.584 186.879 77.868 188.131 74.828C189.45 71.724 190.108 68.361 190.108 64.74C190.108 61.248 189.45 57.982 188.131 54.943C186.879 51.839 185.1 49.123 182.793 46.794C180.552 44.402 177.948 42.526 174.983 41.168C172.017 39.81 168.853 39.131 165.492 39.131C162.131 39.131 158.967 39.81 156.001 41.168C153.035 42.526 150.4 44.369 148.092 46.697C145.852 49.026 144.072 51.742 142.754 54.846C141.502 57.95 140.875 61.28 140.875 64.837C140.875 68.329 141.502 71.627 142.754 74.731C144.072 77.835 145.852 80.551 148.092 82.879C150.4 85.208 153.003 87.051 155.902 88.409C158.868 89.702 162.032 90.349 165.393 90.349ZM212.395 98.497C211.274 98.497 210.384 98.303 209.725 97.915C209.132 97.527 208.703 97.01 208.44 96.363C208.242 95.652 208.144 94.843 208.144 93.938V34.863C208.144 34.022 208.275 33.311 208.539 32.729C208.802 32.147 209.264 31.694 209.923 31.371C210.648 30.983 211.636 30.789 212.889 30.789C214.338 30.789 215.36 30.918 215.954 31.177C216.547 31.436 217.14 31.888 217.733 32.535L254.905 84.141V34.863C254.905 34.022 255.004 33.311 255.202 32.729C255.465 32.147 255.926 31.694 256.586 31.371C257.244 30.983 258.2 30.789 259.453 30.789C260.639 30.789 261.529 30.983 262.122 31.371C262.78 31.759 263.209 32.309 263.407 33.02C263.67 33.667 263.803 34.41 263.803 35.251V94.035C263.803 94.876 263.637 95.652 263.308 96.363C263.044 97.01 262.55 97.527 261.825 97.915C261.166 98.303 260.21 98.497 258.958 98.497C257.904 98.497 257.014 98.368 256.289 98.109C255.63 97.85 255.004 97.365 254.411 96.654L217.041 45.436V94.035C217.041 94.876 216.909 95.652 216.646 96.363C216.382 97.01 215.92 97.527 215.262 97.915C214.602 98.303 213.646 98.497 212.395 98.497ZM282.389 98.497C281.071 98.497 280.082 98.303 279.423 97.915C278.83 97.592 278.434 97.107 278.236 96.46C278.039 95.749 277.94 94.94 277.94 94.035V35.154C277.94 34.249 278.039 33.473 278.236 32.826C278.5 32.179 278.928 31.694 279.522 31.371C280.181 30.983 281.17 30.789 282.487 30.789C283.806 30.789 284.761 30.983 285.354 31.371C286.014 31.694 286.409 32.179 286.541 32.826C286.738 33.473 286.837 34.281 286.837 35.251V94.132C286.837 95.037 286.738 95.813 286.541 96.46C286.343 97.107 285.915 97.592 285.256 97.915C284.662 98.303 283.707 98.497 282.389 98.497ZM351.176 30.789C352.033 30.789 352.725 30.886 353.252 31.08C353.846 31.274 354.307 31.662 354.636 32.244C354.966 32.761 355.131 33.634 355.131 34.863C355.131 36.027 354.933 36.9 354.538 37.482C354.208 38.064 353.747 38.452 353.154 38.646C352.56 38.776 351.836 38.84 350.979 38.84H330.514V94.229C330.514 95.07 330.383 95.813 330.119 96.46C329.921 97.107 329.493 97.592 328.834 97.915C328.24 98.303 327.318 98.497 326.066 98.497C324.748 98.497 323.759 98.303 323.1 97.915C322.507 97.592 322.111 97.107 321.913 96.46C321.782 95.749 321.716 94.973 321.716 94.132V38.84H300.955C300.098 38.84 299.373 38.776 298.78 38.646C298.187 38.452 297.725 38.064 297.396 37.482C297.066 36.9 296.901 36.027 296.901 34.863C296.901 33.634 297.033 32.761 297.297 32.244C297.626 31.662 298.088 31.274 298.681 31.08C299.34 30.886 300.065 30.789 300.856 30.789H351.176ZM410.677 92.289C411.204 93.259 411.468 94.1 411.468 94.811C411.534 95.458 411.336 96.072 410.875 96.654C410.413 97.171 409.688 97.656 408.7 98.109C407.118 98.82 405.865 98.982 404.943 98.594C404.086 98.206 403.295 97.268 402.57 95.781L377.855 44.175L353.337 95.684C352.613 97.171 351.788 98.109 350.866 98.497C350.009 98.885 348.757 98.723 347.109 98.012C346.121 97.624 345.396 97.139 344.934 96.557C344.539 95.975 344.374 95.264 344.44 94.423C344.571 93.582 344.902 92.612 345.429 91.513L373.802 33.408C374.197 32.632 374.758 32.018 375.482 31.565C376.273 31.048 377.097 30.789 377.954 30.789C378.547 30.789 379.108 30.886 379.635 31.08C380.162 31.274 380.623 31.565 381.019 31.953C381.414 32.341 381.743 32.858 382.007 33.505L410.677 92.289ZM359.269 79.193L362.63 71.724H393.277L396.54 79.193H359.269Z"></path></mask><path d="M8.39602 98.497C7.27602 98.497 6.38602 98.303 5.72702 97.915C5.13402 97.527 4.70502 97.01 4.44202 96.363C4.24402 95.652 4.14502 94.843 4.14502 93.938V34.863C4.14502 34.022 4.27702 33.311 4.54002 32.729C4.80402 32.147 5.26502 31.694 5.92502 31.371C6.64902 30.983 7.63802 30.789 8.89002 30.789C10.34 30.789 11.362 30.918 11.955 31.177C12.548 31.436 13.141 31.888 13.735 32.535L50.906 84.141V34.863C50.906 34.022 51.005 33.311 51.203 32.729C51.467 32.147 51.928 31.694 52.587 31.371C53.246 30.983 54.202 30.789 55.454 30.789C56.64 30.789 57.53 30.983 58.123 31.371C58.782 31.759 59.211 32.309 59.409 33.02C59.672 33.667 59.804 34.41 59.804 35.251V94.035C59.804 94.876 59.639 95.652 59.31 96.363C59.046 97.01 58.552 97.527 57.827 97.915C57.168 98.303 56.212 98.497 54.96 98.497C53.905 98.497 53.015 98.368 52.291 98.109C51.631 97.85 51.005 97.365 50.412 96.654L13.043 45.436V94.035C13.043 94.876 12.911 95.652 12.647 96.363C12.383 97.01 11.922 97.527 11.263 97.915C10.604 98.303 9.64802 98.497 8.39602 98.497ZM79.676 98.497C78.358 98.497 77.369 98.303 76.71 97.915C76.117 97.592 75.721 97.107 75.524 96.46C75.326 95.749 75.227 94.94 75.227 94.035V35.154C75.227 33.473 75.557 32.341 76.216 31.759C76.941 31.112 78.193 30.789 79.973 30.789H119.715C120.637 30.789 121.428 30.886 122.088 31.08C122.746 31.274 123.24 31.694 123.571 32.341C123.9 32.988 124.065 33.958 124.065 35.251C124.065 36.545 123.867 37.515 123.472 38.161C123.142 38.743 122.647 39.131 121.989 39.325C121.329 39.519 120.539 39.616 119.616 39.616H84.125V59.696H108.84C109.763 59.696 110.521 59.793 111.114 59.987C111.772 60.181 112.267 60.569 112.597 61.151C112.926 61.733 113.091 62.638 113.091 63.867C113.091 65.031 112.926 65.904 112.597 66.486C112.267 67.068 111.772 67.456 111.114 67.65C110.455 67.779 109.631 67.844 108.643 67.844H84.125V89.767H119.715C120.637 89.767 121.428 89.864 122.088 90.058C122.746 90.252 123.24 90.672 123.571 91.319C123.9 91.901 124.065 92.838 124.065 94.132C124.065 95.425 123.867 96.395 123.472 97.042C123.142 97.624 122.647 98.012 121.989 98.206C121.329 98.4 120.539 98.497 119.616 98.497H79.676ZM165.986 99.176C161.307 99.176 156.891 98.303 152.739 96.557C148.653 94.811 145.027 92.386 141.864 89.282C138.767 86.113 136.328 82.491 134.548 78.417C132.769 74.343 131.879 69.946 131.879 65.225C131.879 60.44 132.736 55.945 134.449 51.742C136.164 47.473 138.536 43.755 141.567 40.586C144.666 37.418 148.225 34.928 152.244 33.117C156.265 31.306 160.549 30.401 165.096 30.401C169.842 30.401 174.258 31.274 178.344 33.02C182.496 34.766 186.089 37.224 189.12 40.392C192.218 43.496 194.656 47.15 196.435 51.354C198.215 55.557 199.105 60.052 199.105 64.837C199.105 69.558 198.215 73.988 196.435 78.126C194.722 82.2 192.349 85.854 189.317 89.088C186.286 92.256 182.76 94.746 178.739 96.557C174.785 98.303 170.534 99.176 165.986 99.176ZM165.393 90.349C168.82 90.349 172.017 89.702 174.983 88.409C178.015 87.115 180.651 85.305 182.891 82.976C185.133 80.584 186.879 77.868 188.131 74.828C189.45 71.724 190.108 68.361 190.108 64.74C190.108 61.248 189.45 57.982 188.131 54.943C186.879 51.839 185.1 49.123 182.793 46.794C180.552 44.402 177.948 42.526 174.983 41.168C172.017 39.81 168.853 39.131 165.492 39.131C162.131 39.131 158.967 39.81 156.001 41.168C153.035 42.526 150.4 44.369 148.092 46.697C145.852 49.026 144.072 51.742 142.754 54.846C141.502 57.95 140.875 61.28 140.875 64.837C140.875 68.329 141.502 71.627 142.754 74.731C144.072 77.835 145.852 80.551 148.092 82.879C150.4 85.208 153.003 87.051 155.902 88.409C158.868 89.702 162.032 90.349 165.393 90.349ZM212.395 98.497C211.274 98.497 210.384 98.303 209.725 97.915C209.132 97.527 208.703 97.01 208.44 96.363C208.242 95.652 208.144 94.843 208.144 93.938V34.863C208.144 34.022 208.275 33.311 208.539 32.729C208.802 32.147 209.264 31.694 209.923 31.371C210.648 30.983 211.636 30.789 212.889 30.789C214.338 30.789 215.36 30.918 215.954 31.177C216.547 31.436 217.14 31.888 217.733 32.535L254.905 84.141V34.863C254.905 34.022 255.004 33.311 255.202 32.729C255.465 32.147 255.926 31.694 256.586 31.371C257.244 30.983 258.2 30.789 259.453 30.789C260.639 30.789 261.529 30.983 262.122 31.371C262.78 31.759 263.209 32.309 263.407 33.02C263.67 33.667 263.803 34.41 263.803 35.251V94.035C263.803 94.876 263.637 95.652 263.308 96.363C263.044 97.01 262.55 97.527 261.825 97.915C261.166 98.303 260.21 98.497 258.958 98.497C257.904 98.497 257.014 98.368 256.289 98.109C255.63 97.85 255.004 97.365 254.411 96.654L217.041 45.436V94.035C217.041 94.876 216.909 95.652 216.646 96.363C216.382 97.01 215.92 97.527 215.262 97.915C214.602 98.303 213.646 98.497 212.395 98.497ZM282.389 98.497C281.071 98.497 280.082 98.303 279.423 97.915C278.83 97.592 278.434 97.107 278.236 96.46C278.039 95.749 277.94 94.94 277.94 94.035V35.154C277.94 34.249 278.039 33.473 278.236 32.826C278.5 32.179 278.928 31.694 279.522 31.371C280.181 30.983 281.17 30.789 282.487 30.789C283.806 30.789 284.761 30.983 285.354 31.371C286.014 31.694 286.409 32.179 286.541 32.826C286.738 33.473 286.837 34.281 286.837 35.251V94.132C286.837 95.037 286.738 95.813 286.541 96.46C286.343 97.107 285.915 97.592 285.256 97.915C284.662 98.303 283.707 98.497 282.389 98.497ZM351.176 30.789C352.033 30.789 352.725 30.886 353.252 31.08C353.846 31.274 354.307 31.662 354.636 32.244C354.966 32.761 355.131 33.634 355.131 34.863C355.131 36.027 354.933 36.9 354.538 37.482C354.208 38.064 353.747 38.452 353.154 38.646C352.56 38.776 351.836 38.84 350.979 38.84H330.514V94.229C330.514 95.07 330.383 95.813 330.119 96.46C329.921 97.107 329.493 97.592 328.834 97.915C328.24 98.303 327.318 98.497 326.066 98.497C324.748 98.497 323.759 98.303 323.1 97.915C322.507 97.592 322.111 97.107 321.913 96.46C321.782 95.749 321.716 94.973 321.716 94.132V38.84H300.955C300.098 38.84 299.373 38.776 298.78 38.646C298.187 38.452 297.725 38.064 297.396 37.482C297.066 36.9 296.901 36.027 296.901 34.863C296.901 33.634 297.033 32.761 297.297 32.244C297.626 31.662 298.088 31.274 298.681 31.08C299.34 30.886 300.065 30.789 300.856 30.789H351.176ZM410.677 92.289C411.204 93.259 411.468 94.1 411.468 94.811C411.534 95.458 411.336 96.072 410.875 96.654C410.413 97.171 409.688 97.656 408.7 98.109C407.118 98.82 405.865 98.982 404.943 98.594C404.086 98.206 403.295 97.268 402.57 95.781L377.855 44.175L353.337 95.684C352.613 97.171 351.788 98.109 350.866 98.497C350.009 98.885 348.757 98.723 347.109 98.012C346.121 97.624 345.396 97.139 344.934 96.557C344.539 95.975 344.374 95.264 344.44 94.423C344.571 93.582 344.902 92.612 345.429 91.513L373.802 33.408C374.197 32.632 374.758 32.018 375.482 31.565C376.273 31.048 377.097 30.789 377.954 30.789C378.547 30.789 379.108 30.886 379.635 31.08C380.162 31.274 380.623 31.565 381.019 31.953C381.414 32.341 381.743 32.858 382.007 33.505L410.677 92.289ZM359.269 79.193L362.63 71.724H393.277L396.54 79.193H359.269Z" fill="black"></path><path d="M8.39602 98.497C7.27602 98.497 6.38602 98.303 5.72702 97.915C5.13402 97.527 4.70502 97.01 4.44202 96.363C4.24402 95.652 4.14502 94.843 4.14502 93.938V34.863C4.14502 34.022 4.27702 33.311 4.54002 32.729C4.80402 32.147 5.26502 31.694 5.92502 31.371C6.64902 30.983 7.63802 30.789 8.89002 30.789C10.34 30.789 11.362 30.918 11.955 31.177C12.548 31.436 13.141 31.888 13.735 32.535L50.906 84.141V34.863C50.906 34.022 51.005 33.311 51.203 32.729C51.467 32.147 51.928 31.694 52.587 31.371C53.246 30.983 54.202 30.789 55.454 30.789C56.64 30.789 57.53 30.983 58.123 31.371C58.782 31.759 59.211 32.309 59.409 33.02C59.672 33.667 59.804 34.41 59.804 35.251V94.035C59.804 94.876 59.639 95.652 59.31 96.363C59.046 97.01 58.552 97.527 57.827 97.915C57.168 98.303 56.212 98.497 54.96 98.497C53.905 98.497 53.015 98.368 52.291 98.109C51.631 97.85 51.005 97.365 50.412 96.654L13.043 45.436V94.035C13.043 94.876 12.911 95.652 12.647 96.363C12.383 97.01 11.922 97.527 11.263 97.915C10.604 98.303 9.64802 98.497 8.39602 98.497ZM79.676 98.497C78.358 98.497 77.369 98.303 76.71 97.915C76.117 97.592 75.721 97.107 75.524 96.46C75.326 95.749 75.227 94.94 75.227 94.035V35.154C75.227 33.473 75.557 32.341 76.216 31.759C76.941 31.112 78.193 30.789 79.973 30.789H119.715C120.637 30.789 121.428 30.886 122.088 31.08C122.746 31.274 123.24 31.694 123.571 32.341C123.9 32.988 124.065 33.958 124.065 35.251C124.065 36.545 123.867 37.515 123.472 38.161C123.142 38.743 122.647 39.131 121.989 39.325C121.329 39.519 120.539 39.616 119.616 39.616H84.125V59.696H108.84C109.763 59.696 110.521 59.793 111.114 59.987C111.772 60.181 112.267 60.569 112.597 61.151C112.926 61.733 113.091 62.638 113.091 63.867C113.091 65.031 112.926 65.904 112.597 66.486C112.267 67.068 111.772 67.456 111.114 67.65C110.455 67.779 109.631 67.844 108.643 67.844H84.125V89.767H119.715C120.637 89.767 121.428 89.864 122.088 90.058C122.746 90.252 123.24 90.672 123.571 91.319C123.9 91.901 124.065 92.838 124.065 94.132C124.065 95.425 123.867 96.395 123.472 97.042C123.142 97.624 122.647 98.012 121.989 98.206C121.329 98.4 120.539 98.497 119.616 98.497H79.676ZM165.986 99.176C161.307 99.176 156.891 98.303 152.739 96.557C148.653 94.811 145.027 92.386 141.864 89.282C138.767 86.113 136.328 82.491 134.548 78.417C132.769 74.343 131.879 69.946 131.879 65.225C131.879 60.44 132.736 55.945 134.449 51.742C136.164 47.473 138.536 43.755 141.567 40.586C144.666 37.418 148.225 34.928 152.244 33.117C156.265 31.306 160.549 30.401 165.096 30.401C169.842 30.401 174.258 31.274 178.344 33.02C182.496 34.766 186.089 37.224 189.12 40.392C192.218 43.496 194.656 47.15 196.435 51.354C198.215 55.557 199.105 60.052 199.105 64.837C199.105 69.558 198.215 73.988 196.435 78.126C194.722 82.2 192.349 85.854 189.317 89.088C186.286 92.256 182.76 94.746 178.739 96.557C174.785 98.303 170.534 99.176 165.986 99.176ZM165.393 90.349C168.82 90.349 172.017 89.702 174.983 88.409C178.015 87.115 180.651 85.305 182.891 82.976C185.133 80.584 186.879 77.868 188.131 74.828C189.45 71.724 190.108 68.361 190.108 64.74C190.108 61.248 189.45 57.982 188.131 54.943C186.879 51.839 185.1 49.123 182.793 46.794C180.552 44.402 177.948 42.526 174.983 41.168C172.017 39.81 168.853 39.131 165.492 39.131C162.131 39.131 158.967 39.81 156.001 41.168C153.035 42.526 150.4 44.369 148.092 46.697C145.852 49.026 144.072 51.742 142.754 54.846C141.502 57.95 140.875 61.28 140.875 64.837C140.875 68.329 141.502 71.627 142.754 74.731C144.072 77.835 145.852 80.551 148.092 82.879C150.4 85.208 153.003 87.051 155.902 88.409C158.868 89.702 162.032 90.349 165.393 90.349ZM212.395 98.497C211.274 98.497 210.384 98.303 209.725 97.915C209.132 97.527 208.703 97.01 208.44 96.363C208.242 95.652 208.144 94.843 208.144 93.938V34.863C208.144 34.022 208.275 33.311 208.539 32.729C208.802 32.147 209.264 31.694 209.923 31.371C210.648 30.983 211.636 30.789 212.889 30.789C214.338 30.789 215.36 30.918 215.954 31.177C216.547 31.436 217.14 31.888 217.733 32.535L254.905 84.141V34.863C254.905 34.022 255.004 33.311 255.202 32.729C255.465 32.147 255.926 31.694 256.586 31.371C257.244 30.983 258.2 30.789 259.453 30.789C260.639 30.789 261.529 30.983 262.122 31.371C262.78 31.759 263.209 32.309 263.407 33.02C263.67 33.667 263.803 34.41 263.803 35.251V94.035C263.803 94.876 263.637 95.652 263.308 96.363C263.044 97.01 262.55 97.527 261.825 97.915C261.166 98.303 260.21 98.497 258.958 98.497C257.904 98.497 257.014 98.368 256.289 98.109C255.63 97.85 255.004 97.365 254.411 96.654L217.041 45.436V94.035C217.041 94.876 216.909 95.652 216.646 96.363C216.382 97.01 215.92 97.527 215.262 97.915C214.602 98.303 213.646 98.497 212.395 98.497ZM282.389 98.497C281.071 98.497 280.082 98.303 279.423 97.915C278.83 97.592 278.434 97.107 278.236 96.46C278.039 95.749 277.94 94.94 277.94 94.035V35.154C277.94 34.249 278.039 33.473 278.236 32.826C278.5 32.179 278.928 31.694 279.522 31.371C280.181 30.983 281.17 30.789 282.487 30.789C283.806 30.789 284.761 30.983 285.354 31.371C286.014 31.694 286.409 32.179 286.541 32.826C286.738 33.473 286.837 34.281 286.837 35.251V94.132C286.837 95.037 286.738 95.813 286.541 96.46C286.343 97.107 285.915 97.592 285.256 97.915C284.662 98.303 283.707 98.497 282.389 98.497ZM351.176 30.789C352.033 30.789 352.725 30.886 353.252 31.08C353.846 31.274 354.307 31.662 354.636 32.244C354.966 32.761 355.131 33.634 355.131 34.863C355.131 36.027 354.933 36.9 354.538 37.482C354.208 38.064 353.747 38.452 353.154 38.646C352.56 38.776 351.836 38.84 350.979 38.84H330.514V94.229C330.514 95.07 330.383 95.813 330.119 96.46C329.921 97.107 329.493 97.592 328.834 97.915C328.24 98.303 327.318 98.497 326.066 98.497C324.748 98.497 323.759 98.303 323.1 97.915C322.507 97.592 322.111 97.107 321.913 96.46C321.782 95.749 321.716 94.973 321.716 94.132V38.84H300.955C300.098 38.84 299.373 38.776 298.78 38.646C298.187 38.452 297.725 38.064 297.396 37.482C297.066 36.9 296.901 36.027 296.901 34.863C296.901 33.634 297.033 32.761 297.297 32.244C297.626 31.662 298.088 31.274 298.681 31.08C299.34 30.886 300.065 30.789 300.856 30.789H351.176ZM410.677 92.289C411.204 93.259 411.468 94.1 411.468 94.811C411.534 95.458 411.336 96.072 410.875 96.654C410.413 97.171 409.688 97.656 408.7 98.109C407.118 98.82 405.865 98.982 404.943 98.594C404.086 98.206 403.295 97.268 402.57 95.781L377.855 44.175L353.337 95.684C352.613 97.171 351.788 98.109 350.866 98.497C350.009 98.885 348.757 98.723 347.109 98.012C346.121 97.624 345.396 97.139 344.934 96.557C344.539 95.975 344.374 95.264 344.44 94.423C344.571 93.582 344.902 92.612 345.429 91.513L373.802 33.408C374.197 32.632 374.758 32.018 375.482 31.565C376.273 31.048 377.097 30.789 377.954 30.789C378.547 30.789 379.108 30.886 379.635 31.08C380.162 31.274 380.623 31.565 381.019 31.953C381.414 32.341 381.743 32.858 382.007 33.505L410.677 92.289ZM359.269 79.193L362.63 71.724H393.277L396.54 79.193H359.269Z" stroke="black" stroke-width="2" mask="url(#path-1-outside-1_233_15)"></path><path d="M407.261 4.31471L258.987 4.12077C257.013 4.11818 255.409 5.71712 255.407 7.69209C255.404 9.66705 257.003 11.2702 258.978 11.2728L407.252 11.4667C409.227 11.4693 410.83 9.87035 410.833 7.89538C410.835 5.92041 409.236 4.31729 407.261 4.31471Z" fill="black" stroke="black" stroke-width="2"></path><path d="M263.154 6.51697H255.602C255.506 6.51697 255.428 6.59487 255.428 6.69097V37.038C255.428 37.1341 255.506 37.212 255.602 37.212H263.154C263.25 37.212 263.328 37.1341 263.328 37.038V6.69097C263.328 6.59487 263.25 6.51697 263.154 6.51697Z" fill="black" stroke="black" stroke-width="2"></path><path d="M212.961 119.273L7.5799 119.005C5.60794 119.002 4.00727 120.601 4.00469 122.576C4.00211 124.551 5.59859 126.154 7.57054 126.157L212.952 126.425C214.923 126.428 216.524 124.829 216.527 122.854C216.529 120.879 214.933 119.276 212.961 119.273Z" fill="black" stroke="black" stroke-width="2"></path><path d="M216.5 93L208.5 89.5L208 121L216.5 120V93Z" fill="black" stroke="black" stroke-width="2"></path></svg>